<svg width="269" height="263" viewBox="0 0 269 263" fill="none" xmlns="http://www.w3.org/2000/svg">
<g clip-path="url(#clip0_18_162)">
<path d="M126.331 150.558C107.49 150.558 85.8381 131.369 66.6812 140.486C8.6792 168.09 16.6635 121.899 0 104.72L0.547065 103.712C18.9333 118.844 41.8891 131.155 66.933 139.315C89.5648 146.689 112.366 150.106 132.864 149.204L132.9 150.415C130.735 150.51 128.545 150.558 126.331 150.558Z" fill="#F2F2F2"/>
<path d="M263.857 39.0278C248.839 49.4681 218.955 46.1699 209.682 64.0535C181.604 118.2 157.582 76.9535 132.998 72.4929L132.771 71.387C157.382 73.2604 183.78 70.3536 209.112 62.9801C232.004 56.3174 252.428 46.4057 268.175 34.3281L269 35.2734C267.337 36.5494 265.623 37.8009 263.857 39.0278Z" fill="#F2F2F2"/>
<path d="M41.7458 70.0255C43.9207 70.0255 45.6839 67.8555 45.6839 65.1786C45.6839 62.5018 43.9207 60.3318 41.7458 60.3318C39.5708 60.3318 37.8076 62.5018 37.8076 65.1786C37.8076 67.8555 39.5708 70.0255 41.7458 70.0255Z" fill="#E6E6E6"/>
<path d="M207.246 115.381C209.421 115.381 211.184 113.211 211.184 110.535C211.184 107.858 209.421 105.688 207.246 105.688C205.071 105.688 203.308 107.858 203.308 110.535C203.308 113.211 205.071 115.381 207.246 115.381Z" fill="#E6E6E6"/>
<path d="M99.088 9.69372C101.263 9.69372 103.026 7.5237 103.026 4.84686C103.026 2.17001 101.263 0 99.088 0C96.9131 0 95.1499 2.17001 95.1499 4.84686C95.1499 7.5237 96.9131 9.69372 99.088 9.69372Z" fill="#E6E6E6"/>
<path d="M169.691 178.912L165.111 153.635C165.019 153.123 165.152 152.599 165.48 152.177C165.809 151.755 166.307 151.47 166.864 151.384L187.663 148.21C188.221 148.125 188.792 148.247 189.252 148.549C189.712 148.85 190.022 149.307 190.116 149.818L194.695 175.096C194.787 175.608 194.654 176.132 194.326 176.554C193.997 176.976 193.5 177.261 192.942 177.347L172.143 180.521C171.585 180.606 171.014 180.484 170.554 180.182C170.095 179.88 169.784 179.424 169.691 178.912Z" fill="#3F3D56"/>
<path d="M169.903 171.034L166.959 154.783C166.873 154.304 166.997 153.813 167.305 153.418C167.613 153.022 168.079 152.756 168.6 152.675L186.476 149.947C186.998 149.868 187.533 149.982 187.964 150.265C188.394 150.547 188.685 150.975 188.772 151.454L192.848 173.947C192.934 174.427 192.81 174.918 192.502 175.313C192.194 175.708 191.728 175.975 191.206 176.055L180.133 177.745C177.807 178.098 175.424 177.589 173.506 176.331C171.588 175.073 170.292 173.168 169.903 171.034Z" fill="white"/>
<path d="M170.675 158.876C170.59 158.407 170.712 157.927 171.013 157.541C171.313 157.155 171.769 156.894 172.279 156.816L184.679 154.923C184.932 154.885 185.19 154.892 185.44 154.945C185.689 154.999 185.925 155.096 186.133 155.233C186.342 155.37 186.519 155.543 186.654 155.742C186.79 155.942 186.881 156.164 186.923 156.396C186.965 156.628 186.957 156.865 186.899 157.094C186.841 157.323 186.735 157.539 186.586 157.731C186.437 157.922 186.248 158.084 186.031 158.209C185.813 158.333 185.571 158.417 185.319 158.455L172.919 160.348C172.408 160.425 171.886 160.314 171.465 160.038C171.044 159.762 170.76 159.344 170.675 158.876Z" fill="#0F172A"/>
<path d="M171.67 164.37C171.585 163.902 171.707 163.422 172.008 163.036C172.308 162.65 172.764 162.389 173.274 162.31L185.674 160.418C185.927 160.379 186.185 160.387 186.435 160.44C186.684 160.493 186.92 160.591 187.128 160.727C187.337 160.864 187.514 161.037 187.649 161.237C187.785 161.436 187.876 161.658 187.918 161.89C187.96 162.122 187.952 162.359 187.894 162.588C187.836 162.817 187.73 163.034 187.581 163.225C187.432 163.416 187.243 163.579 187.026 163.703C186.809 163.827 186.567 163.911 186.314 163.95L173.914 165.842C173.404 165.92 172.881 165.808 172.46 165.532C172.039 165.256 171.755 164.838 171.67 164.37Z" fill="#0F172A"/>
<path d="M172.665 169.864C172.581 169.396 172.703 168.916 173.003 168.53C173.304 168.144 173.759 167.883 174.269 167.805L186.67 165.912C187.18 165.834 187.703 165.945 188.124 166.222C188.545 166.498 188.829 166.916 188.914 167.384C188.999 167.853 188.877 168.333 188.576 168.719C188.276 169.105 187.82 169.366 187.31 169.444L174.909 171.337C174.399 171.414 173.876 171.302 173.456 171.026C173.035 170.75 172.751 170.332 172.665 169.864Z" fill="#0F172A"/>
<path d="M160.3 155.087C159.758 154.528 159.356 153.866 159.124 153.148C158.891 152.431 158.832 151.676 158.951 150.935C159.071 150.195 159.366 149.487 159.816 148.863C160.266 148.238 160.859 147.712 161.554 147.321L154.299 115.614L163.915 119.007L169.482 149.298C170.121 150.414 170.291 151.706 169.961 152.929C169.632 154.153 168.824 155.223 167.692 155.936C166.561 156.65 165.183 156.957 163.82 156.801C162.458 156.644 161.205 156.035 160.3 155.087Z" fill="#A0616A"/>
<path d="M157.098 255.369L165.013 255.368L168.778 227.348L157.097 227.348L157.098 255.369Z" fill="#A0616A"/>
<path d="M155.079 252.997L157.307 252.997L166.005 249.75L170.667 252.996H170.667C173.302 252.996 175.828 253.957 177.691 255.667C179.554 257.376 180.601 259.695 180.601 262.113V262.41L155.08 262.41L155.079 252.997Z" fill="#2F2E41"/>
<path d="M85.5811 245.924L92.6649 249.164L109.654 225.628L99.1987 220.846L85.5811 245.924Z" fill="#A0616A"/>
<path d="M84.927 242.974L86.9209 243.886L96.2833 244.542L98.8779 249.356L98.8784 249.356C101.236 250.435 103.03 252.329 103.867 254.622C104.703 256.915 104.513 259.419 103.338 261.583L103.194 261.848L80.3521 251.4L84.927 242.974Z" fill="#2F2E41"/>
<path d="M160.605 128.11L110.279 129.315L111.155 151.807C111.155 151.807 110.279 157.832 112.03 159.439C113.78 161.045 114.656 161.045 113.78 163.857C112.905 166.669 110.642 193.532 110.642 193.532C110.642 193.532 89.9873 227.052 90.8625 227.856C91.7378 228.659 92.613 227.856 91.7378 229.864C90.8625 231.872 89.9873 231.069 90.8625 231.872C91.6378 232.639 92.3682 233.444 93.0506 234.282H107.315C107.315 234.282 108.113 230.266 108.113 229.864C108.113 229.462 108.988 227.052 108.988 226.651C108.988 226.249 133.911 202.014 133.911 202.014L139.162 161.849L151.853 201.211C151.853 201.211 151.853 235.752 152.728 236.556C153.603 237.359 153.603 236.957 153.166 238.564C152.728 240.171 150.977 239.769 152.29 240.974C153.603 242.179 154.041 240.171 153.603 242.179L153.166 244.187L169.978 244.36C169.978 244.36 171.729 240.974 170.854 239.769C169.978 238.564 170.031 238.893 171.099 236.921C172.166 234.949 172.604 234.548 172.166 234.146C171.729 233.744 171.729 231.608 171.729 231.608C171.729 231.608 165.419 152.611 165.419 151.406C165.386 150.786 165.51 150.167 165.782 149.599V147.963L164.106 142.168L160.605 128.11Z" fill="#2F2E41"/>
<path d="M205.971 240.273L206.405 231.312C210.932 229.091 215.981 227.918 221.113 227.895C214.049 233.196 214.932 243.414 210.143 250.542C208.63 252.755 206.595 254.627 204.187 256.02C201.779 257.412 199.061 258.29 196.234 258.587L190.322 261.909C189.511 257.759 189.69 253.496 190.846 249.415C192.003 245.334 194.11 241.532 197.021 238.27C198.675 236.455 200.57 234.839 202.664 233.458C204.079 236.885 205.971 240.273 205.971 240.273Z" fill="#F2F2F2"/>
<path d="M134.546 49.229L159.754 96.0191L154.822 152.805L122.611 150.103L116.834 56.0623L134.546 49.229Z" fill="#2F2E41"/>
<path d="M169.943 146.536L155.213 145.3L155.19 145.128L145.305 70.0089L147.517 64.3798C148.047 63.0433 148.944 61.8553 150.121 60.931C151.299 60.0068 152.717 59.3779 154.237 59.1054C155.396 58.9006 156.587 58.908 157.742 59.1276C158.897 59.3472 159.994 59.7744 160.968 60.3846C161.943 60.9948 162.776 61.776 163.42 62.6832C164.064 63.5903 164.506 64.6054 164.721 65.6701L167.366 78.7843L171.119 123.114L169.943 146.536Z" fill="#2F2E41"/>
<path d="M131.592 56.1679L134.563 49.6445L143.757 49.7927L153.345 62.2397L163.407 101.08C163.407 101.08 167.021 129.453 163.407 130.951C159.793 132.449 147.543 130.599 147.543 130.599L131.592 56.1679Z" fill="#0F172A"/>
<path d="M143.757 49.7927C143.757 49.7927 163.563 60.3006 164.337 65.7858C165.112 71.2709 167.706 138.406 167.706 138.406L160.702 134.252L158.788 109.784L150.24 59.6875L143.757 49.7927Z" fill="#2F2E41"/>
<path d="M139.082 46.7364C146.537 46.7364 152.58 41.1897 152.58 34.3476C152.58 27.5054 146.537 21.9587 139.082 21.9587C131.627 21.9587 125.584 27.5054 125.584 34.3476C125.584 41.1897 131.627 46.7364 139.082 46.7364Z" fill="#A0616A"/>
<path d="M123.771 26.2073C125.287 24.0551 128.131 22.6207 130.889 23.0238C131.145 21.4087 131.88 19.8892 133.012 18.6308C134.145 17.3723 135.632 16.4231 137.311 15.8865C138.99 15.3499 140.798 15.2465 142.537 15.5875C144.276 15.9286 145.88 16.701 147.174 17.8207C147.599 17.5457 148.095 17.3763 148.613 17.3287C149.131 17.2811 149.653 17.3571 150.129 17.5492C151.078 17.9452 151.904 18.5535 152.531 19.3182C154.113 21.1292 155.13 23.3 155.475 25.5996C155.82 27.8993 155.478 30.2416 154.488 32.3774C154.825 31.253 153.597 30.1952 152.356 29.9429C151.116 29.6906 149.815 29.9293 148.557 29.765C146.945 29.5545 145.496 28.696 143.881 28.5029C142.524 28.3405 141.159 28.6598 139.836 28.9799C138.512 29.3 137.151 29.6264 135.792 29.4783C134.433 29.3302 132.682 34.0574 132.706 37.3869C132.71 38.0179 132.569 38.828 131.897 38.9619C131.069 39.1268 130.59 38.0787 129.803 37.7931C129.44 37.6976 129.05 37.7352 128.717 37.8979C128.384 38.0606 128.132 38.3357 128.016 38.6653C127.916 39.0003 127.906 39.3523 127.985 39.6918C128.063 40.0314 128.23 40.3488 128.469 40.6175C128.953 41.1503 129.528 41.6078 130.171 41.9724L129.846 42.22C129.307 42.8741 128.188 42.9025 127.41 42.4978C126.667 42.0355 126.065 41.4062 125.661 40.6698C124.222 38.4737 122.961 36.1337 122.453 33.6138C121.945 31.094 122.256 28.3594 123.771 26.2073Z" fill="#2F2E41"/>
<path d="M94.3703 117.958L121.338 91.4036C121.884 90.8667 122.64 90.5507 123.44 90.5249C124.24 90.4991 125.019 90.7656 125.605 91.266L147.455 109.959C148.04 110.46 148.385 111.154 148.413 111.889C148.441 112.623 148.15 113.337 147.605 113.875L120.638 140.43C120.091 140.967 119.335 141.283 118.535 141.309C117.735 141.334 116.957 141.068 116.371 140.568L94.5203 121.875C93.9353 121.373 93.591 120.679 93.5629 119.945C93.5348 119.211 93.8252 118.496 94.3703 117.958Z" fill="#E6E6E6"/>
<path d="M104.191 111.371L121.528 94.2997C122.04 93.7969 122.748 93.5009 123.498 93.4767C124.247 93.4525 124.976 93.7021 125.525 94.1707L144.304 110.235C144.851 110.705 145.174 111.355 145.2 112.043C145.227 112.731 144.955 113.4 144.444 113.904L120.447 137.534C119.935 138.036 119.227 138.332 118.477 138.357C117.728 138.381 116.999 138.131 116.45 137.662L104.817 127.711C102.377 125.618 100.941 122.723 100.823 119.66C100.706 116.597 101.917 113.616 104.191 111.371Z" fill="white"/>
<path d="M119.732 101.664C120.232 101.173 120.924 100.884 121.656 100.86C122.388 100.836 123.101 101.08 123.637 101.538L136.664 112.682C137.2 113.141 137.516 113.776 137.541 114.448C137.567 115.121 137.301 115.775 136.801 116.267C136.301 116.759 135.609 117.049 134.877 117.072C134.144 117.096 133.432 116.851 132.896 116.393L119.869 105.249C119.334 104.79 119.019 104.155 118.993 103.483C118.967 102.811 119.233 102.157 119.732 101.664Z" fill="#E6E6E6"/>
<path d="M113.87 107.436C114.37 106.945 115.062 106.656 115.794 106.632C116.527 106.608 117.239 106.852 117.776 107.31L130.802 118.454C131.068 118.681 131.282 118.954 131.432 119.257C131.583 119.56 131.667 119.888 131.68 120.22C131.692 120.553 131.634 120.885 131.506 121.197C131.379 121.509 131.187 121.795 130.939 122.039C130.692 122.282 130.395 122.479 130.064 122.617C129.734 122.755 129.378 122.832 129.015 122.844C128.652 122.856 128.291 122.802 127.951 122.685C127.611 122.569 127.299 122.392 127.034 122.165L114.007 111.021C113.472 110.562 113.157 109.926 113.131 109.254C113.105 108.582 113.371 107.929 113.87 107.436Z" fill="#E6E6E6"/>
<path d="M108.009 113.208C108.509 112.717 109.201 112.427 109.933 112.404C110.665 112.38 111.378 112.624 111.914 113.082L124.941 124.226C125.477 124.685 125.793 125.32 125.818 125.992C125.844 126.664 125.578 127.318 125.078 127.81C124.578 128.303 123.886 128.592 123.154 128.616C122.421 128.639 121.709 128.395 121.173 127.936L108.146 116.792C107.611 116.333 107.296 115.698 107.27 115.026C107.244 114.354 107.51 113.7 108.009 113.208Z" fill="#E6E6E6"/>
<path d="M139.704 144.859L130.38 157.112L129.946 157.592C129.19 158.425 128.148 158.997 126.99 159.212C126.826 159.242 126.661 159.264 126.496 159.279C126.292 159.299 126.086 159.306 125.881 159.303C125.764 159.301 125.646 159.295 125.529 159.285C124.849 159.232 124.187 159.055 123.582 158.765L119.604 156.215C119.287 156.012 119.062 155.711 118.968 155.367C118.922 155.197 118.909 155.021 118.929 154.847C118.959 154.602 119.055 154.369 119.208 154.168L130.688 139.08C130.932 138.761 131.304 138.543 131.722 138.475C132.14 138.407 132.571 138.494 132.92 138.716L139.308 142.811C139.323 142.821 139.337 142.831 139.352 142.841C139.362 142.847 139.371 142.854 139.38 142.861C139.393 142.87 139.406 142.879 139.417 142.888C139.433 142.9 139.448 142.912 139.463 142.924C139.476 142.935 139.49 142.947 139.503 142.958L139.511 142.965C139.527 142.98 139.544 142.995 139.559 143.011C139.575 143.026 139.591 143.042 139.606 143.058C139.617 143.069 139.628 143.081 139.638 143.093L139.639 143.094C139.67 143.13 139.699 143.166 139.726 143.204C139.735 143.216 139.743 143.228 139.751 143.24L139.755 143.245C139.761 143.255 139.767 143.264 139.773 143.274C139.792 143.303 139.809 143.333 139.826 143.363C139.853 143.413 139.876 143.464 139.897 143.517C139.904 143.534 139.91 143.551 139.915 143.568C139.92 143.582 139.925 143.596 139.929 143.61L139.93 143.613L139.932 143.619C139.936 143.631 139.94 143.643 139.943 143.656C139.95 143.679 139.955 143.703 139.961 143.727C139.962 143.734 139.964 143.74 139.965 143.747C139.967 143.753 139.968 143.76 139.969 143.767C139.971 143.773 139.971 143.78 139.973 143.786L139.975 143.797C139.978 143.816 139.981 143.836 139.983 143.855C139.986 143.879 139.988 143.904 139.989 143.928C139.991 143.948 139.992 143.968 139.992 143.988C139.993 144.006 139.993 144.024 139.992 144.042C139.992 144.047 139.992 144.052 139.992 144.056C139.991 144.075 139.99 144.093 139.989 144.112C139.986 144.159 139.98 144.205 139.972 144.251C139.969 144.269 139.966 144.285 139.962 144.302C139.958 144.323 139.953 144.343 139.948 144.363C139.946 144.371 139.944 144.378 139.941 144.386C139.938 144.397 139.935 144.408 139.932 144.419C139.928 144.431 139.924 144.444 139.92 144.456L139.909 144.485C139.903 144.503 139.896 144.52 139.889 144.537C139.885 144.547 139.881 144.557 139.876 144.567C139.844 144.64 139.805 144.711 139.761 144.778C139.755 144.787 139.75 144.795 139.744 144.803C139.731 144.822 139.718 144.84 139.704 144.859Z" fill="white"/>
<path d="M133.39 145.324C134.146 145.324 134.759 144.762 134.759 144.068C134.759 143.374 134.146 142.812 133.39 142.812C132.634 142.812 132.021 143.374 132.021 144.068C132.021 144.762 132.634 145.324 133.39 145.324Z" fill="#0F172A"/>
<path d="M117.929 157.342C117.387 156.782 116.986 156.12 116.753 155.403C116.52 154.685 116.461 153.93 116.581 153.189C116.701 152.449 116.996 151.742 117.445 151.117C117.895 150.493 118.488 149.966 119.184 149.575L111.929 117.868L121.545 121.262L127.111 151.553C127.75 152.668 127.921 153.96 127.591 155.184C127.261 156.407 126.454 157.477 125.322 158.19C124.19 158.904 122.812 159.212 121.45 159.055C120.087 158.899 118.835 158.289 117.929 157.342Z" fill="#A0616A"/>
<path d="M112.602 144.476L108.688 121.333L107.218 76.8856L108.311 63.5637C108.399 62.484 108.72 61.4311 109.254 60.4656C109.788 59.5001 110.525 58.6412 111.422 57.9383C112.319 57.2353 113.359 56.7023 114.482 56.3699C115.605 56.0375 116.788 55.9123 117.964 56.0015C119.508 56.1223 120.991 56.6075 122.27 57.41C123.549 58.2125 124.58 59.3051 125.263 60.5815L128.122 65.9595L127.102 141.792L112.602 144.476Z" fill="#2F2E41"/>
<path d="M235.695 262.336C235.696 262.423 235.677 262.509 235.641 262.59C235.604 262.671 235.551 262.744 235.484 262.806C235.416 262.868 235.337 262.917 235.249 262.95C235.161 262.983 235.066 263 234.971 263H40.0771C39.8851 263 39.7009 262.93 39.5651 262.805C39.4293 262.681 39.353 262.512 39.353 262.336C39.353 262.159 39.4293 261.99 39.5651 261.866C39.7009 261.741 39.8851 261.671 40.0771 261.671H234.971C235.066 261.671 235.161 261.688 235.249 261.721C235.337 261.754 235.416 261.803 235.484 261.865C235.551 261.927 235.604 262 235.641 262.081C235.677 262.162 235.696 262.248 235.695 262.336Z" fill="#CCCCCC"/>
<path d="M128.512 39.3692C128.521 39.2289 128.567 39.0927 128.646 38.9725C128.725 38.8524 128.836 38.7521 128.968 38.6805C129.099 38.6088 129.248 38.568 129.401 38.5617C129.554 38.5553 129.706 38.5836 129.844 38.6441C129.983 38.7046 130.102 38.7954 130.193 38.9084C130.284 39.0215 130.343 39.1533 130.366 39.2924C130.388 39.4314 130.372 39.5733 130.321 39.7055C130.269 39.8378 130.183 39.9563 130.069 40.0507L131.636 42.4143C131.701 42.5112 131.72 42.6276 131.691 42.7379C131.662 42.8482 131.586 42.9432 131.48 43.0022C131.375 43.0612 131.248 43.0793 131.128 43.0525C131.008 43.0256 130.904 42.9561 130.84 42.8591L129.078 40.2016C128.902 40.1331 128.753 40.0164 128.652 39.8674C128.55 39.7185 128.502 39.5445 128.512 39.3692Z" fill="white"/>
<path d="M129.612 40.976C129.67 41.0815 129.81 41.1239 129.925 41.0707C130.04 41.0175 130.086 40.8888 130.028 40.7833L129.608 40.0192C129.55 39.9137 129.41 39.8714 129.295 39.9246C129.18 39.9778 129.134 40.1064 129.192 40.2119L129.612 40.976Z" fill="#2F2E41"/>
</g>
<defs>
<clipPath id="clip0_18_162">
<rect width="269" height="263" fill="white"/>
</clipPath>
</defs>
</svg>
