<!-- <svg xmlns="http://www.w3.org/2000/svg" width="24" height="24" 
    viewBox="0 0 24 24" style="fill: rgba(0, 0, 0, 1);transform: ;msFilter:;" class="dark:text-green-600">
    <path d="M20 3H4a1 1 0 0 0-1 1v16a1 1 0 0 0 1 1h16a1 1 0 0 0 1-1V4a1 1 0 0 0-1-1zM8.339 18.337H5.667v-8.59h2.672v8.59zM7.003 8.574a1.548 1.548 0 1 1 0-3.096 1.548 1.548 0 0 1 0 3.096zm11.335 9.763h-2.669V14.16c0-.996-.018-2.277-1.388-2.277-1.39 0-1.601 1.086-1.601 2.207v4.248h-2.667v-8.59h2.56v1.174h.037c.355-.675 1.227-1.387 2.524-1.387 2.704 0 3.203 1.778 3.203 4.092v4.71z">
    </path>
</svg> -->

<svg class="size-4" xmlns="http://www.w3.org/2000/svg" width="24" height="24" 
    viewBox="0 0 24 24" stroke-width="2" stroke="currentColor" 
    fill="none" stroke-linecap="round" stroke-linejoin="round">
    <path stroke="none" d="M0 0h24v24H0z" fill="none"></path>
    <path d="M4 4m0 2a2 2 0 0 1 2 -2h12a2 2 0 0 1 2 2v12a2 2 0 0 1 -2 2h-12a2 2 0 0 1 -2 -2z"></path>
    <path d="M8 11l0 5"></path>
    <path d="M8 8l0 .01"></path>
    <path d="M12 16l0 -5"></path>
    <path d="M16 16v-3a2 2 0 0 0 -4 0"></path>
</svg>