<svg width="388" height="262" viewBox="0 0 388 262" fill="none" xmlns="http://www.w3.org/2000/svg">
<g clip-path="url(#clip0_19_60)">
<path d="M283.574 32.7479C283.574 32.7479 281.068 37.9911 280.332 38.2169C279.597 38.4427 277.719 58.058 287.856 55.5281C297.992 52.9983 294.279 46.8484 294.279 46.8484C294.279 46.8484 294.455 40.0748 294.843 39.6207C295.231 39.1665 284.01 32.5048 284.01 32.5048L283.574 32.7479Z" fill="#A0616A"/>
<path d="M350.091 108.082H38.6408C37.3265 108.096 36.0702 108.7 35.1451 109.762C34.2201 110.825 33.7012 112.26 33.7012 113.755C33.7012 115.251 34.2201 116.685 35.1451 117.748C36.0702 118.81 37.3265 119.414 38.6408 119.428H47.4627V255.143C47.4751 256.638 48.0059 258.068 48.9396 259.12C49.8734 260.173 51.1346 260.763 52.449 260.763C53.7634 260.763 55.0246 260.173 55.9583 259.12C56.8921 258.068 57.4229 256.638 57.4352 255.143L57.511 119.428H330.529V255.143C330.529 256.648 331.055 258.091 331.99 259.155C332.925 260.218 334.193 260.816 335.516 260.816C336.838 260.816 338.106 260.218 339.042 259.155C339.977 258.091 340.502 256.648 340.502 255.143L341.953 119.428H350.091C351.405 119.414 352.662 118.81 353.587 117.748C354.512 116.685 355.031 115.251 355.031 113.755C355.031 112.26 354.512 110.825 353.587 109.762C352.662 108.7 351.405 108.096 350.091 108.082H350.091Z" fill="#CCCCCC"/>
<path d="M92.6265 82.8041V106.828H39.7243C36.9355 106.917 34.2287 105.748 32.1947 103.576C30.1607 101.403 28.9647 98.4034 28.8677 95.2311C28.7707 92.0588 29.7806 88.9717 31.677 86.6435C33.5733 84.3153 36.2022 82.9351 38.9898 82.8041C39.2345 82.7945 39.4793 82.7945 39.7243 82.8041H92.6265Z" fill="#F2F2F2"/>
<path d="M93.9261 106.643C93.9259 106.888 93.8403 107.123 93.6881 107.296C93.5358 107.47 93.3293 107.567 93.1139 107.567H38.7809C35.8299 107.567 32.9998 106.233 30.9132 103.859C28.8266 101.485 27.6543 98.2656 27.6543 94.9082C27.6543 91.5508 28.8266 88.3309 30.9132 85.9569C32.9998 83.5829 35.8299 82.2491 38.7809 82.2491H93.1139C93.3293 82.2491 93.5359 82.3465 93.6882 82.5198C93.8405 82.6931 93.9261 82.9281 93.9261 83.1731C93.9261 83.4182 93.8405 83.6532 93.6882 83.8265C93.5359 83.9998 93.3293 84.0971 93.1139 84.0971H38.7809C36.2608 84.0971 33.844 85.2361 32.0621 87.2635C30.2801 89.2908 29.279 92.0405 29.279 94.9077C29.279 97.7748 30.2801 100.525 32.0621 102.552C33.844 104.579 36.2608 105.718 38.7809 105.718H93.1139C93.2206 105.718 93.3263 105.742 93.4249 105.789C93.5234 105.835 93.613 105.903 93.6884 105.989C93.7638 106.075 93.8236 106.177 93.8644 106.289C93.9052 106.402 93.9261 106.522 93.9261 106.643Z" fill="#0F172A"/>
<path d="M92.6271 88.3485H35.7779C35.7362 88.3465 35.6969 88.3264 35.6679 88.2923C35.6389 88.2583 35.6225 88.2128 35.6221 88.1654C35.6217 88.118 35.6373 88.0722 35.6657 88.0375C35.6942 88.0028 35.7332 87.9819 35.7748 87.979H92.6271C92.6687 87.9815 92.7079 88.002 92.7366 88.0364C92.7652 88.0708 92.7812 88.1164 92.7812 88.1638C92.7812 88.2111 92.7652 88.2567 92.7366 88.2911C92.7079 88.3255 92.6687 88.346 92.6271 88.3485Z" fill="#CCCCCC"/>
<path d="M92.6271 92.7835H35.7779C35.7559 92.785 35.7339 92.7814 35.7131 92.7729C35.6924 92.7644 35.6733 92.7512 35.6572 92.7341C35.6411 92.717 35.6282 92.6964 35.6193 92.6734C35.6104 92.6504 35.6057 92.6257 35.6055 92.6006C35.6053 92.5755 35.6095 92.5506 35.618 92.5274C35.6266 92.5043 35.6391 92.4834 35.655 92.4659C35.6708 92.4485 35.6896 92.4348 35.7102 92.4259C35.7308 92.417 35.7528 92.4129 35.7749 92.414H92.6271C92.6687 92.4164 92.7079 92.437 92.7366 92.4714C92.7653 92.5057 92.7813 92.5513 92.7813 92.5987C92.7813 92.6461 92.7653 92.6917 92.7366 92.7261C92.7079 92.7605 92.6687 92.781 92.6271 92.7835Z" fill="#CCCCCC"/>
<path d="M92.6271 97.2184H35.7779C35.7362 97.2164 35.6969 97.1963 35.6679 97.1622C35.6389 97.1282 35.6225 97.0827 35.6221 97.0353C35.6217 96.9879 35.6373 96.9421 35.6657 96.9074C35.6942 96.8727 35.7332 96.8518 35.7748 96.8489H92.6271C92.6687 96.8513 92.7079 96.8719 92.7366 96.9063C92.7652 96.9406 92.7812 96.9862 92.7812 97.0336C92.7812 97.081 92.7652 97.1266 92.7366 97.161C92.7079 97.1954 92.6687 97.2159 92.6271 97.2184Z" fill="#CCCCCC"/>
<path d="M92.6271 101.654H35.7779C35.7559 101.655 35.7339 101.652 35.7131 101.643C35.6924 101.635 35.6733 101.622 35.6572 101.604C35.6411 101.587 35.6282 101.567 35.6193 101.544C35.6104 101.521 35.6057 101.496 35.6055 101.471C35.6053 101.446 35.6095 101.421 35.618 101.398C35.6266 101.375 35.6391 101.354 35.655 101.336C35.6708 101.319 35.6896 101.305 35.7102 101.296C35.7308 101.287 35.7528 101.283 35.7749 101.284H92.6271C92.6687 101.287 92.7079 101.307 92.7366 101.342C92.7653 101.376 92.7813 101.422 92.7813 101.469C92.7813 101.516 92.7653 101.562 92.7366 101.596C92.7079 101.631 92.6687 101.651 92.6271 101.654Z" fill="#CCCCCC"/>
<path d="M82.6539 57.4941V81.5177H29.7517C26.9628 81.6074 24.256 80.4384 22.2221 78.2658C20.1881 76.0931 18.9921 73.0933 18.8951 69.921C18.7981 66.7488 19.808 63.6616 21.7043 61.3335C23.6007 59.0053 26.2295 57.6251 29.0171 57.4941C29.2618 57.4844 29.5067 57.4844 29.7517 57.4941H82.6539Z" fill="#F2F2F2"/>
<path d="M83.9534 81.3332C83.9533 81.5782 83.8677 81.8131 83.7154 81.9864C83.5631 82.1596 83.3566 82.257 83.1413 82.2572H28.8082C25.8573 82.2572 23.0272 80.9235 20.9405 78.5494C18.8539 76.1754 17.6816 72.9555 17.6816 69.5981C17.6816 66.2407 18.8539 63.0209 20.9405 60.6468C23.0272 58.2728 25.8573 56.9391 28.8082 56.9391H83.1413C83.2479 56.9391 83.3535 56.963 83.4521 57.0094C83.5506 57.0559 83.6401 57.1239 83.7155 57.2097C83.7909 57.2955 83.8508 57.3974 83.8916 57.5095C83.9324 57.6216 83.9534 57.7417 83.9534 57.8631C83.9534 57.9844 83.9324 58.1046 83.8916 58.2167C83.8508 58.3288 83.7909 58.4306 83.7155 58.5164C83.6401 58.6022 83.5506 58.6703 83.4521 58.7167C83.3535 58.7632 83.2479 58.7871 83.1413 58.7871H28.8082C26.2882 58.7871 23.8713 59.926 22.0894 61.9534C20.3074 63.9808 19.3063 66.7305 19.3063 69.5976C19.3063 72.4648 20.3074 75.2145 22.0894 77.2418C23.8713 79.2692 26.2882 80.4082 28.8082 80.4082H83.1413C83.3566 80.4083 83.5631 80.5057 83.7154 80.679C83.8677 80.8522 83.9533 81.0872 83.9534 81.3322V81.3332Z" fill="#090814"/>
<path d="M82.6545 63.038H25.8053C25.7833 63.0395 25.7612 63.0359 25.7404 63.0274C25.7197 63.0189 25.7007 63.0057 25.6845 62.9886C25.6684 62.9715 25.6555 62.9509 25.6466 62.9279C25.6377 62.9049 25.633 62.8801 25.6328 62.855C25.6326 62.83 25.6369 62.8051 25.6454 62.7819C25.6539 62.7588 25.6665 62.7378 25.6823 62.7204C25.6981 62.7029 25.7169 62.6893 25.7376 62.6804C25.7582 62.6715 25.7801 62.6674 25.8022 62.6685H82.6545C82.6765 62.6672 82.6985 62.671 82.7192 62.6796C82.7399 62.6883 82.7589 62.7017 82.7749 62.719C82.7909 62.7363 82.8036 62.7571 82.8123 62.7802C82.821 62.8033 82.8255 62.8281 82.8255 62.8532C82.8255 62.8783 82.821 62.9032 82.8123 62.9262C82.8036 62.9493 82.7909 62.9701 82.7749 62.9874C82.7589 63.0047 82.7399 63.0181 82.7192 63.0268C82.6985 63.0355 82.6765 63.0393 82.6545 63.038Z" fill="#CCCCCC"/>
<path d="M82.6545 67.4729H25.8053C25.7833 67.4744 25.7612 67.4708 25.7404 67.4624C25.7197 67.4539 25.7007 67.4407 25.6845 67.4236C25.6684 67.4065 25.6555 67.3858 25.6466 67.3628C25.6377 67.3399 25.633 67.3151 25.6328 67.29C25.6326 67.2649 25.6369 67.24 25.6454 67.2169C25.6539 67.1937 25.6665 67.1728 25.6823 67.1553C25.6981 67.1379 25.7169 67.1243 25.7376 67.1153C25.7582 67.1064 25.7801 67.1024 25.8022 67.1034H82.6545C82.6765 67.1021 82.6985 67.1059 82.7192 67.1146C82.7399 67.1233 82.7589 67.1367 82.7749 67.154C82.7909 67.1713 82.8036 67.1921 82.8123 67.2151C82.821 67.2382 82.8255 67.263 82.8255 67.2881C82.8255 67.3133 82.821 67.3381 82.8123 67.3612C82.8036 67.3842 82.7909 67.405 82.7749 67.4223C82.7589 67.4396 82.7399 67.453 82.7192 67.4617C82.6985 67.4704 82.6765 67.4742 82.6545 67.4729Z" fill="#CCCCCC"/>
<path d="M82.6545 71.9083H25.8053C25.7833 71.9098 25.7612 71.9062 25.7404 71.8978C25.7197 71.8893 25.7007 71.8761 25.6845 71.859C25.6684 71.8419 25.6555 71.8212 25.6466 71.7983C25.6377 71.7753 25.633 71.7505 25.6328 71.7254C25.6326 71.7003 25.6369 71.6755 25.6454 71.6523C25.6539 71.6292 25.6665 71.6082 25.6823 71.5908C25.6981 71.5733 25.7169 71.5597 25.7376 71.5508C25.7582 71.5418 25.7801 71.5378 25.8022 71.5388H82.6545C82.6765 71.5375 82.6985 71.5413 82.7192 71.55C82.7399 71.5587 82.7589 71.5721 82.7749 71.5894C82.7909 71.6067 82.8036 71.6275 82.8123 71.6506C82.821 71.6736 82.8255 71.6985 82.8255 71.7236C82.8255 71.7487 82.821 71.7735 82.8123 71.7966C82.8036 71.8196 82.7909 71.8405 82.7749 71.8577C82.7589 71.875 82.7399 71.8884 82.7192 71.8971C82.6985 71.9058 82.6765 71.9096 82.6545 71.9083Z" fill="#CCCCCC"/>
<path d="M82.6545 76.3433H25.8053C25.7833 76.3448 25.7612 76.3412 25.7404 76.3327C25.7197 76.3242 25.7007 76.311 25.6845 76.2939C25.6684 76.2768 25.6555 76.2561 25.6466 76.2332C25.6377 76.2102 25.633 76.1854 25.6328 76.1604C25.6326 76.1353 25.6369 76.1104 25.6454 76.0872C25.6539 76.0641 25.6665 76.0432 25.6823 76.0257C25.6981 76.0083 25.7169 75.9946 25.7376 75.9857C25.7582 75.9768 25.7801 75.9727 25.8022 75.9738H82.6545C82.6765 75.9725 82.6985 75.9763 82.7192 75.985C82.7399 75.9937 82.7589 76.0071 82.7749 76.0243C82.7909 76.0416 82.8036 76.0624 82.8123 76.0855C82.821 76.1086 82.8255 76.1334 82.8255 76.1585C82.8255 76.1836 82.821 76.2085 82.8123 76.2315C82.8036 76.2546 82.7909 76.2754 82.7749 76.2927C82.7589 76.31 82.7399 76.3234 82.7192 76.3321C82.6985 76.3407 82.6765 76.3446 82.6545 76.3433Z" fill="#CCCCCC"/>
<path d="M144.196 193.091V172.145C144.195 171.219 143.872 170.331 143.297 169.677C142.721 169.022 141.941 168.654 141.127 168.654H71.3193C70.5055 168.654 69.7252 169.022 69.1498 169.677C68.5744 170.331 68.2511 171.219 68.251 172.145V193.091H144.196Z" fill="#CCCCCC"/>
<path d="M144.196 200.947H68.251V228.003H144.196V200.947Z" fill="#CCCCCC"/>
<path d="M68.251 235.858V256.804C68.251 257.73 68.5742 258.618 69.1496 259.273C69.725 259.927 70.5055 260.295 71.3193 260.295H141.127C141.941 260.295 142.721 259.928 143.296 259.273C143.872 258.618 144.195 257.73 144.195 256.804V235.858H68.251Z" fill="#CCCCCC"/>
<path d="M105.84 184.365C107.111 184.365 108.141 183.192 108.141 181.746C108.141 180.3 107.111 179.128 105.84 179.128C104.569 179.128 103.538 180.3 103.538 181.746C103.538 183.192 104.569 184.365 105.84 184.365Z" fill="white"/>
<path d="M105.84 219.276C107.111 219.276 108.141 218.103 108.141 216.657C108.141 215.211 107.111 214.039 105.84 214.039C104.569 214.039 103.538 215.211 103.538 216.657C103.538 218.103 104.569 219.276 105.84 219.276Z" fill="white"/>
<path d="M105.964 253.448C107.235 253.448 108.265 252.275 108.265 250.829C108.265 249.383 107.235 248.21 105.964 248.21C104.693 248.21 103.662 249.383 103.662 250.829C103.662 252.275 104.693 253.448 105.964 253.448Z" fill="white"/>
<path d="M135.585 144.771V168.795H82.6828C81.2911 168.86 79.9018 168.611 78.5949 168.063C77.2879 167.515 76.0892 166.678 75.0676 165.601C74.046 164.524 73.2218 163.227 72.6423 161.786C72.0628 160.345 71.7395 158.788 71.691 157.204C71.6425 155.62 71.8698 154.041 72.3597 152.558C72.8497 151.074 73.5927 149.716 74.5459 148.56C75.4991 147.405 76.6438 146.475 77.9141 145.825C79.1843 145.175 80.555 144.817 81.9474 144.771C82.1924 144.762 82.4375 144.762 82.6828 144.771H135.585Z" fill="#F2F2F2"/>
<path d="M136.885 168.61C136.885 168.855 136.799 169.09 136.647 169.263C136.495 169.436 136.288 169.534 136.073 169.534H81.7406C78.7897 169.536 75.9589 168.204 73.871 165.831C71.7831 163.459 70.6092 160.24 70.6074 156.882C70.6057 153.525 71.7763 150.304 73.8617 147.929C75.9471 145.553 78.7765 144.218 81.7274 144.216H136.073C136.288 144.216 136.495 144.313 136.647 144.486C136.799 144.66 136.885 144.895 136.885 145.14C136.885 145.385 136.799 145.62 136.647 145.793C136.495 145.966 136.288 146.064 136.073 146.064H81.7406C79.2206 146.064 76.8037 147.203 75.0218 149.23C73.2398 151.258 72.2387 154.007 72.2387 156.874C72.2387 159.741 73.2398 162.491 75.0218 164.519C76.8037 166.546 79.2206 167.685 81.7406 167.685H136.074C136.289 167.685 136.495 167.783 136.648 167.956C136.8 168.13 136.885 168.365 136.885 168.61Z" fill="#090814"/>
<path d="M135.585 150.315H78.7359C78.7139 150.317 78.6919 150.313 78.6711 150.305C78.6504 150.296 78.6313 150.283 78.6152 150.266C78.5991 150.249 78.5862 150.228 78.5773 150.205C78.5684 150.182 78.5637 150.157 78.5635 150.132C78.5633 150.107 78.5676 150.082 78.5761 150.059C78.5846 150.036 78.5971 150.015 78.613 149.998C78.6288 149.98 78.6476 149.967 78.6682 149.958C78.6888 149.949 78.7108 149.945 78.7329 149.946H135.585C135.607 149.944 135.629 149.948 135.65 149.957C135.671 149.966 135.69 149.979 135.706 149.996C135.722 150.014 135.734 150.034 135.743 150.057C135.752 150.08 135.756 150.105 135.756 150.13C135.756 150.156 135.752 150.18 135.743 150.203C135.734 150.227 135.722 150.247 135.706 150.265C135.69 150.282 135.671 150.295 135.65 150.304C135.629 150.313 135.607 150.316 135.585 150.315Z" fill="#CCCCCC"/>
<path d="M135.585 154.751H78.7359C78.7139 154.752 78.6919 154.749 78.6711 154.74C78.6504 154.732 78.6313 154.718 78.6152 154.701C78.5991 154.684 78.5862 154.663 78.5773 154.641C78.5684 154.618 78.5637 154.593 78.5635 154.568C78.5633 154.543 78.5676 154.518 78.5761 154.495C78.5846 154.471 78.5971 154.451 78.613 154.433C78.6288 154.416 78.6476 154.402 78.6682 154.393C78.6888 154.384 78.7108 154.38 78.7329 154.381H135.585C135.607 154.38 135.629 154.384 135.65 154.392C135.671 154.401 135.69 154.414 135.706 154.432C135.722 154.449 135.734 154.47 135.743 154.493C135.752 154.516 135.756 154.541 135.756 154.566C135.756 154.591 135.752 154.616 135.743 154.639C135.734 154.662 135.722 154.683 135.706 154.7C135.69 154.717 135.671 154.731 135.65 154.739C135.629 154.748 135.607 154.752 135.585 154.751Z" fill="#CCCCCC"/>
<path d="M135.585 159.185H78.7359C78.7139 159.187 78.6919 159.183 78.6711 159.174C78.6504 159.166 78.6313 159.153 78.6152 159.136C78.5991 159.119 78.5862 159.098 78.5773 159.075C78.5684 159.052 78.5637 159.027 78.5635 159.002C78.5633 158.977 78.5676 158.952 78.5761 158.929C78.5846 158.906 78.5971 158.885 78.613 158.867C78.6288 158.85 78.6476 158.836 78.6682 158.828C78.6888 158.819 78.7108 158.815 78.7329 158.816H135.585C135.607 158.814 135.629 158.818 135.65 158.827C135.671 158.835 135.69 158.849 135.706 158.866C135.722 158.883 135.734 158.904 135.743 158.927C135.752 158.95 135.756 158.975 135.756 159C135.756 159.025 135.752 159.05 135.743 159.073C135.734 159.096 135.722 159.117 135.706 159.134C135.69 159.152 135.671 159.165 135.65 159.174C135.629 159.183 135.607 159.186 135.585 159.185Z" fill="#CCCCCC"/>
<path d="M135.585 163.62H78.7359C78.7139 163.622 78.6919 163.618 78.6711 163.61C78.6504 163.601 78.6313 163.588 78.6152 163.571C78.5991 163.554 78.5862 163.533 78.5773 163.51C78.5684 163.487 78.5637 163.463 78.5635 163.438C78.5633 163.412 78.5676 163.388 78.5761 163.364C78.5846 163.341 78.5971 163.32 78.613 163.303C78.6288 163.285 78.6476 163.272 78.6682 163.263C78.6888 163.254 78.7108 163.25 78.7329 163.251H135.585C135.607 163.25 135.629 163.253 135.65 163.262C135.671 163.271 135.69 163.284 135.706 163.302C135.722 163.319 135.734 163.34 135.743 163.363C135.752 163.386 135.756 163.411 135.756 163.436C135.756 163.461 135.752 163.486 135.743 163.509C135.734 163.532 135.722 163.553 135.706 163.57C135.69 163.587 135.671 163.601 135.65 163.609C135.629 163.618 135.607 163.622 135.585 163.62Z" fill="#CCCCCC"/>
<path d="M73.4548 49.4796H49.3509C49.1217 49.4791 48.8955 49.5388 48.6899 49.654L42.6066 53.1188C42.4064 53.2157 42.2357 53.3773 42.1157 53.5838C41.9956 53.7902 41.9316 54.0322 41.9316 54.2797C41.9316 54.5272 41.9956 54.7692 42.1157 54.9757C42.2357 55.1821 42.4064 55.3438 42.6066 55.4406L48.6899 58.9054C48.8955 59.0206 49.1217 59.0803 49.3509 59.0799H73.4548C73.787 59.1016 74.1133 58.9737 74.3631 58.7237C74.6129 58.4737 74.7661 58.1218 74.7896 57.7443V50.8151C74.7661 50.4376 74.6129 50.0857 74.3631 49.8357C74.1133 49.5857 73.787 49.4578 73.4548 49.4796Z" fill="#090814"/>
<path d="M74.7893 50.8151V57.7443C74.7658 58.1218 74.6126 58.4737 74.3628 58.7237C74.113 58.9737 73.7867 59.1016 73.4545 59.0799H68.6514V49.4796H73.4545C73.7867 49.4578 74.113 49.5857 74.3628 49.8357C74.6126 50.0857 74.7658 50.4376 74.7893 50.8151Z" fill="#0F172A"/>
<path d="M106.444 56.0291C108.551 56.8716 110.814 57.0825 113.013 56.6416C115.213 56.2007 117.276 55.1229 119.003 53.5119C123.402 49.3111 124.782 42.39 125.904 35.9812L129.223 17.0258L122.273 22.4704C117.275 26.3859 112.165 30.4263 108.705 36.0975C105.244 41.7688 103.734 49.5101 106.514 55.6466" fill="#E6E6E6"/>
<path d="M107.035 78.9794C106.33 73.1502 105.609 67.2479 106.102 61.354C106.54 56.1215 107.944 51.0107 110.8 46.8204C112.316 44.6003 114.161 42.6981 116.252 41.1993C116.797 40.8078 117.299 41.7909 116.756 42.1805C113.139 44.7817 110.341 48.6228 108.765 53.15C107.026 58.1845 106.746 63.6728 107.047 69.0206C107.228 72.2548 107.612 75.468 108 78.6766C108.03 78.8217 108.011 78.9746 107.946 79.1044C107.881 79.2341 107.776 79.331 107.651 79.3755C107.523 79.4146 107.387 79.3949 107.272 79.3206C107.157 79.2462 107.072 79.1233 107.036 78.9784L107.035 78.9794Z" fill="#F2F2F2"/>
<path d="M113.812 68.6631C114.715 70.2259 115.958 71.4975 117.419 72.3555C118.88 73.2135 120.511 73.6289 122.154 73.5618C126.377 73.3337 129.898 69.9802 133.067 66.7966L142.442 57.3798L136.237 57.0419C131.776 56.7992 127.199 56.5726 122.949 58.1378C118.699 59.703 114.781 63.4707 114.005 68.4756" fill="#E6E6E6"/>
<path d="M105.05 82.3294C108.436 75.5135 112.363 67.9407 119.38 65.5176C121.331 64.8468 123.377 64.6065 125.407 64.8097C126.047 64.8724 125.887 65.9949 125.248 65.9323C121.845 65.6108 118.448 66.6332 115.63 68.8275C112.918 70.9277 110.806 73.8475 109.02 76.9444C107.925 78.841 106.944 80.8183 105.964 82.7926C105.649 83.4233 104.733 82.9676 105.05 82.3294Z" fill="#F2F2F2"/>
<path d="M99.6252 89.5036C99.7392 87.9997 100.214 86.5603 100.997 85.342C101.78 84.1238 102.843 83.1734 104.068 82.5945V78.6544H109.877V82.7188C111.042 83.3262 112.044 84.2741 112.782 85.466C113.52 86.6579 113.967 88.0511 114.077 89.5036L115.443 107.568H98.2578L99.6252 89.5036Z" fill="#F2F2F2"/>
<path d="M209.837 107.537L207.293 106.318L205.547 91.8033H182.299L180.406 106.259L178.13 107.554C178.021 107.616 177.933 107.718 177.882 107.843C177.83 107.969 177.818 108.11 177.846 108.245C177.874 108.38 177.941 108.5 178.036 108.586C178.132 108.672 178.25 108.719 178.371 108.719H209.628C209.753 108.719 209.874 108.67 209.97 108.58C210.067 108.49 210.133 108.365 210.158 108.225C210.183 108.086 210.164 107.942 210.106 107.816C210.047 107.69 209.953 107.592 209.837 107.537V107.537Z" fill="#E6E6E6"/>
<path d="M251.151 93.7345H136.95C136.351 93.7331 135.777 93.4613 135.353 92.9787C134.93 92.4962 134.692 91.8423 134.692 91.1606V72.8389H253.409V91.1606C253.409 91.8423 253.171 92.4962 252.748 92.9787C252.324 93.4613 251.75 93.7331 251.151 93.7345Z" fill="#CCCCCC"/>
<path d="M253.528 81.4981H134.589V3.10284C134.59 2.28028 134.878 1.49183 135.389 0.910239C135.9 0.328644 136.594 0.00132543 137.317 0H250.801C251.524 0.00132543 252.217 0.328644 252.728 0.910239C253.239 1.49183 253.527 2.28028 253.528 3.10284V81.4981Z" fill="#090814"/>
<path d="M246.425 75.8084H141.693C141.135 75.8077 140.601 75.5554 140.206 75.1069C139.812 74.6584 139.59 74.0502 139.59 73.4159V8.08225C139.59 7.44795 139.812 6.83981 140.206 6.39128C140.601 5.94276 141.135 5.69048 141.693 5.68982H246.425C246.982 5.69048 247.517 5.94276 247.911 6.39128C248.305 6.83981 248.527 7.44795 248.527 8.08225V73.4179C248.527 74.0522 248.305 74.6604 247.911 75.1089C247.517 75.5574 246.982 75.8097 246.425 75.8104V75.8084Z" fill="white"/>
<path d="M218.839 98.8628C219.516 98.1523 220.321 97.6192 221.198 97.301C222.075 96.9828 223.002 96.8873 223.915 97.0211C224.828 97.155 225.705 97.5149 226.482 98.0757C227.259 98.6364 227.919 99.3842 228.415 100.267L242.582 97.4008L246.212 106.771L226.157 110.494C224.799 111.341 223.216 111.593 221.706 111.201C220.197 110.81 218.865 109.803 217.964 108.37C217.063 106.937 216.655 105.179 216.817 103.427C216.978 101.675 217.699 100.051 218.842 98.8628H218.839Z" fill="#A0616A"/>
<path d="M231.955 110.825L246.724 110.615L248.593 110.586L278.64 110.156C278.64 110.156 286.8 101.299 293.905 92.1809L292.909 83.9854C291.937 75.9428 288.431 68.5757 283.041 63.2551C272.865 70.9914 266.964 86.3036 266.964 86.3036L248.333 91.3732L246.469 91.8801L234.893 95.0276L231.955 110.825Z" fill="#0F172A"/>
<path d="M307.558 161.195H279.99C279.99 162.539 249.855 163.629 249.855 163.629C249.19 164.199 248.584 164.852 248.049 165.577C246.44 167.76 245.561 170.519 245.566 173.368V175.315C245.567 178.543 246.695 181.639 248.701 183.922C250.707 186.204 253.428 187.487 256.265 187.488H307.558C310.394 187.485 313.114 186.202 315.12 183.92C317.126 181.638 318.254 178.543 318.257 175.315V173.368C318.253 170.141 317.124 167.047 315.119 164.765C313.113 162.483 310.394 161.199 307.558 161.195Z" fill="#E4E4E4"/>
<path d="M287.511 187.005H276.383V260.078H287.511V187.005Z" fill="#E4E4E4"/>
<path d="M244.712 259.634C244.712 261.001 261.574 260.163 282.374 260.163C303.174 260.163 320.036 261.001 320.036 259.634C320.036 258.266 303.174 247.418 282.374 247.418C261.574 247.418 244.712 258.265 244.712 259.634Z" fill="#E4E4E4"/>
<path d="M237.238 251.284H228.956L225.017 214.943H237.239L237.238 251.284Z" fill="#A0616A"/>
<path d="M212.761 251.284H204.48L200.54 214.943H212.762L212.761 251.284Z" fill="#A0616A"/>
<path d="M286.945 42.0591C294.897 42.0591 301.344 34.7246 301.344 25.6771C301.344 16.6295 294.897 9.29504 286.945 9.29504C278.993 9.29504 272.546 16.6295 272.546 25.6771C272.546 34.7246 278.993 42.0591 286.945 42.0591Z" fill="#A0616A"/>
<path d="M310.249 137.922C310.249 137.922 315.081 166.988 296.698 170.689C278.316 174.39 251.778 176.992 251.778 176.992L239.864 240.246L223.855 238.619C223.855 238.619 225.984 162.476 231.22 156.519C236.456 150.562 269.55 132.726 269.55 132.726L310.249 137.922Z" fill="#090814"/>
<path d="M274.348 125.74L266.308 134.915C266.308 134.915 208.257 145.555 206.018 160.809C202.637 183.839 198.644 233.921 198.644 233.921L216.097 232.432L222.941 175.502L250.866 168.275L282.638 148.576L274.348 125.74Z" fill="#090814"/>
<path d="M300.801 15.8982C299.378 12.847 297.572 6.76616 294.704 5.63813C293.111 5.03702 291.464 4.63787 289.794 4.44792L284.918 6.58166L287.572 4.23335C287.055 4.19992 286.539 4.17134 286.023 4.14761L282.732 5.58749L284.415 4.09798C281.348 4.06238 278.182 4.42486 275.805 6.54957C273.778 8.36094 271.771 15.2229 271.447 18.1307C271.1 20.9128 271.221 23.7447 271.804 26.4752L272.638 27.3776C272.929 26.6172 273.148 25.8236 273.292 25.0102C273.59 23.4904 274.164 22.058 274.976 20.8044C275.788 19.5508 276.821 18.5035 278.009 17.7291L278.053 17.7001C279.45 16.8052 281.146 16.8478 282.749 16.9119L290.36 17.2238C292.191 17.299 294.163 17.4308 295.591 18.7374C296.498 19.7014 297.211 20.8771 297.682 22.1841C298.391 23.813 299.778 29.955 299.778 29.955C299.778 29.955 300.562 28.7954 300.938 29.6582C301.541 27.4061 301.907 25.0807 302.03 22.7306C302.15 20.3702 301.727 18.015 300.801 15.8982Z" fill="#090814"/>
<path d="M351.162 32.8719C350.244 32.941 349.35 33.2383 348.543 33.7428C347.737 34.2474 347.037 34.947 346.494 35.7923C345.951 36.6376 345.577 37.6082 345.4 38.6355C345.222 39.6629 345.244 40.7222 345.465 41.7387L333.884 51.4563L337.357 60.9017L353.539 46.9171C355.016 46.3821 356.269 45.2491 357.061 43.7329C357.852 42.2168 358.128 40.4229 357.834 38.6912C357.541 36.9596 356.699 35.4105 355.469 34.3378C354.239 33.265 352.705 32.7431 351.159 32.8709L351.162 32.8719Z" fill="#A0616A"/>
<path d="M349.299 52.7097L320.271 89.3879C320.271 89.3879 306.39 84.3318 295.654 78.8505L290.831 61.9972C289.711 58.0875 289.233 53.9767 289.421 49.8701C304.303 45.3645 321.614 62.1296 321.614 62.1296L343.342 42.7655L349.299 52.7097Z" fill="#0F172A"/>
<path d="M281.566 140.631C276.388 138.595 271.035 136.491 265.256 135.701L265.008 135.667L265.077 135.394C271.056 111.508 269.563 96.2287 266.633 73.2765C266.01 68.3259 266.811 63.2787 268.916 58.8883C271.021 54.498 274.318 50.9998 278.314 48.916L278.349 48.898L294.846 47.7053L294.884 47.7028L306.882 51.7176C308.608 52.2994 310.118 53.509 311.182 55.161C312.246 56.8131 312.805 58.8164 312.772 60.8641C312.64 68.4124 312.918 76.8396 313.21 85.7611C313.865 105.777 314.542 126.474 310.698 139.903L310.678 139.973L310.627 140.018C307.095 143.291 302.671 145.06 298.116 145.018C292.732 145.019 287.238 142.859 281.566 140.631Z" fill="#0F172A"/>
<path d="M387.439 262H0.560517C0.252057 262 0 261.609 0 261.127C0 260.645 0.251176 260.254 0.560517 260.254H387.439C387.748 260.254 388 260.645 388 261.127C388 261.609 387.749 262 387.439 262Z" fill="#CCCCCC"/>
<path d="M210.58 246.675C211.394 245.696 212.145 244.652 212.827 243.551C214.131 241.495 215.288 252.03 215.288 252.03C215.288 252.03 216.543 256.314 216.23 258.455C215.916 260.597 208.699 260.597 207.444 260.24C206.189 259.883 199.914 260.24 199.914 260.24H190.499C182.341 255.957 190.499 253.101 190.499 253.101C193.011 252.744 201.481 243.819 201.481 243.819L203.363 239.893C204.618 239.536 205.875 244.891 205.875 244.891L210.58 246.675Z" fill="#090814"/>
<path d="M234.942 246.675C235.756 245.696 236.507 244.652 237.19 243.551C238.494 241.495 239.651 252.03 239.651 252.03C239.651 252.03 240.906 256.314 240.592 258.455C240.278 260.597 233.062 260.597 231.807 260.24C230.552 259.883 224.276 260.24 224.276 260.24H214.861C206.703 255.957 214.861 253.101 214.861 253.101C217.373 252.744 225.843 243.819 225.843 243.819L227.726 239.893C228.981 239.536 230.237 244.891 230.237 244.891L234.942 246.675Z" fill="#090814"/>
</g>
<defs>
<clipPath id="clip0_19_60">
<rect width="388" height="262" fill="white"/>
</clipPath>
</defs>
</svg>
